<svg xmlns="http://www.w3.org/2000/svg" viewBox="0 0 1440 320"><path fill="#000b76" fill-opacity="1" d="M0,320L6.9,288C13.7,256,27,192,41,192C54.9,192,69,256,82,245.3C96,235,110,149,123,112C137.1,75,151,85,165,80C178.3,75,192,53,206,64C219.4,75,233,117,247,144C260.6,171,274,181,288,170.7C301.7,160,315,128,329,106.7C342.9,85,357,75,370,74.7C384,75,398,85,411,90.7C425.1,96,439,96,453,90.7C466.3,85,480,75,494,106.7C507.4,139,521,213,535,229.3C548.6,245,562,203,576,176C589.7,149,603,139,617,117.3C630.9,96,645,64,658,69.3C672,75,686,117,699,112C713.1,107,727,53,741,42.7C754.3,32,768,64,782,74.7C795.4,85,809,75,823,69.3C836.6,64,850,64,864,101.3C877.7,139,891,213,905,213.3C918.9,213,933,139,946,144C960,149,974,235,987,272C1001.1,309,1015,299,1029,266.7C1042.3,235,1056,181,1070,170.7C1083.4,160,1097,192,1111,218.7C1124.6,245,1138,267,1152,282.7C1165.7,299,1179,309,1193,272C1206.9,235,1221,149,1234,96C1248,43,1262,21,1275,26.7C1289.1,32,1303,64,1317,112C1330.3,160,1344,224,1358,234.7C1371.4,245,1385,203,1399,165.3C1412.6,128,1426,96,1433,80L1440,64L1440,0L1433.1,0C1426.3,0,1413,0,1399,0C1385.1,0,1371,0,1358,0C1344,0,1330,0,1317,0C1302.9,0,1289,0,1275,0C1261.7,0,1248,0,1234,0C1220.6,0,1207,0,1193,0C1179.4,0,1166,0,1152,0C1138.3,0,1125,0,1111,0C1097.1,0,1083,0,1070,0C1056,0,1042,0,1029,0C1014.9,0,1001,0,987,0C973.7,0,960,0,946,0C932.6,0,919,0,905,0C891.4,0,878,0,864,0C850.3,0,837,0,823,0C809.1,0,795,0,782,0C768,0,754,0,741,0C726.9,0,713,0,699,0C685.7,0,672,0,658,0C644.6,0,631,0,617,0C603.4,0,590,0,576,0C562.3,0,549,0,535,0C521.1,0,507,0,494,0C480,0,466,0,453,0C438.9,0,425,0,411,0C397.7,0,384,0,370,0C356.6,0,343,0,329,0C315.4,0,302,0,288,0C274.3,0,261,0,247,0C233.1,0,219,0,206,0C192,0,178,0,165,0C150.9,0,137,0,123,0C109.7,0,96,0,82,0C68.6,0,55,0,41,0C27.4,0,14,0,7,0L0,0Z"></path></svg>